# xmcd
# 
# Track frame offsets:
#     187
#     19605
#     30400
#     51770
#     72475
#     85090
#     100295
#     150802
#     166997
#     198550
#     214952
#     237175
#     255042
#     266265
#     283402
# 
# Disc length: 3924
# 
# Revision: 2
# Processed by: cddbd v1.5.2PL0 Copyright (c) Steve Scherf et al.
# Submitted via: fre:ac v1.0.17
# 
DISCID=c00f520f
DTITLE=Various Artist - JAZZ BALLARD SELECTION
DYEAR=0
DGENRE=Jazz
TTITLE0=V.A. - SAY IT (over And Over Again) - John Coltrane
TTITLE1=V.A. - CANDY - Clark Terry
TTITLE2=V.A. - OVER THE RAINBOW 虹の彼方に - Ben Webster
TTITLE3=V.A. - I'M A FOOL TO WANT YOU - Kenny Burrell
TTITLE4=V.A. - IT'S EASY TO REMENBER - John Coltrane
TTITLE5=V.A. - DAYS OF WINE AND ROSE 酒とバラの日々 - McCoy Tyner
TTITLE6=V.A. - EVERYTHING HAPPENS TO ME - Sonny Rollins
TTITLE7=V.A. - ALONE TOGETHER - J.J.Johnson and Kai Winding
TTITLE8=V.A. - YOU DON'T KNOW WHAT LOVE IS - Art Blakey and The Jazz Messengers
TTITLE9=V.A. - WE'LL BE TOGETHER AGAIN - McCoy Tyner
TTITLE10=V.A. - OLD FOLKS - Zoot Sims
TTITLE11=V.A. - I GOT IT BAD AND THAT AIN'T GOOD - Sonny Criss
TTITLE12=V.A. - A BEUTUFUL ROMANCE - Milt Jackson
TTITLE13=V.A. - WHAT'S NEW - John Coltrane
TTITLE14=V.A. - STARDUST - Ben Webster
EXTD=
EXTT0=
EXTT1=
EXTT2=
EXTT3=
EXTT4=
EXTT5=
EXTT6=
EXTT7=
EXTT8=
EXTT9=
EXTT10=
EXTT11=
EXTT12=
EXTT13=
EXTT14=
PLAYORDER=
